<?xml version="1.0" encoding="utf-8" standalone="yes"?>
<!DOCTYPE svg PUBLIC "-//W3C//DTD SVG 1.1//EN" "http://www.w3.org/Graphics/SVG/1.1/DTD/svg11.dtd">
<svg xmlns:xlink="http://www.w3.org/1999/xlink" width="103px" height="103px" viewBox="0 0 103 103" class="barcode-canvas" version="1.1" style="shape-rendering:crispEdges;" xmlns="http://www.w3.org/2000/svg">
  <g text-rendering="geometricPrecision" fill="#000000">
    <rect x="0" y="0" width="103" height="103" fill-opacity="0" />
    <rect x="7" y="7" width="5" height="5" fill="#ffffff" />
    <rect x="17" y="7" width="5" height="5" fill="#ffffff" />
    <rect x="27" y="7" width="5" height="5" fill="#ffffff" />
    <rect x="37" y="7" width="5" height="5" fill="#ffffff" />
    <rect x="47" y="7" width="5" height="5" fill="#ffffff" />
    <rect x="57" y="7" width="5" height="5" fill="#ffffff" />
    <rect x="67" y="7" width="5" height="5" fill="#ffffff" />
    <rect x="77" y="7" width="5" height="5" fill="#ffffff" />
    <rect x="87" y="7" width="5" height="5" fill="#ffffff" />
    <rect x="7" y="12" width="10" height="5" fill="#ffffff" />
    <rect x="27" y="12" width="5" height="5" fill="#ffffff" />
    <rect x="37" y="12" width="15" height="5" fill="#ffffff" />
    <rect x="62" y="12" width="5" height="5" fill="#ffffff" />
    <rect x="72" y="12" width="5" height="5" fill="#ffffff" />
    <rect x="82" y="12" width="15" height="5" fill="#ffffff" />
    <rect x="7" y="17" width="5" height="5" fill="#ffffff" />
    <rect x="22" y="17" width="5" height="5" fill="#ffffff" />
    <rect x="32" y="17" width="5" height="5" fill="#ffffff" />
    <rect x="42" y="17" width="5" height="5" fill="#ffffff" />
    <rect x="52" y="17" width="10" height="5" fill="#ffffff" />
    <rect x="67" y="17" width="10" height="5" fill="#ffffff" />
    <rect x="7" y="22" width="5" height="5" fill="#ffffff" />
    <rect x="42" y="22" width="20" height="5" fill="#ffffff" />
    <rect x="67" y="22" width="30" height="5" fill="#ffffff" />
    <rect x="7" y="27" width="10" height="5" fill="#ffffff" />
    <rect x="22" y="27" width="5" height="5" fill="#ffffff" />
    <rect x="32" y="27" width="5" height="5" fill="#ffffff" />
    <rect x="52" y="27" width="10" height="5" fill="#ffffff" />
    <rect x="67" y="27" width="10" height="5" fill="#ffffff" />
    <rect x="82" y="27" width="5" height="5" fill="#ffffff" />
    <rect x="7" y="32" width="10" height="5" fill="#ffffff" />
    <rect x="22" y="32" width="20" height="5" fill="#ffffff" />
    <rect x="72" y="32" width="25" height="5" fill="#ffffff" />
    <rect x="7" y="37" width="15" height="5" fill="#ffffff" />
    <rect x="27" y="37" width="5" height="5" fill="#ffffff" />
    <rect x="37" y="37" width="5" height="5" fill="#ffffff" />
    <rect x="67" y="37" width="5" height="5" fill="#ffffff" />
    <rect x="82" y="37" width="10" height="5" fill="#ffffff" />
    <rect x="7" y="42" width="10" height="5" fill="#ffffff" />
    <rect x="22" y="42" width="5" height="5" fill="#ffffff" />
    <rect x="32" y="42" width="15" height="5" fill="#ffffff" />
    <rect x="52" y="42" width="10" height="5" fill="#ffffff" />
    <rect x="67" y="42" width="10" height="5" fill="#ffffff" />
    <rect x="82" y="42" width="15" height="5" fill="#ffffff" />
    <rect x="7" y="47" width="30" height="5" fill="#ffffff" />
    <rect x="42" y="47" width="10" height="5" fill="#ffffff" />
    <rect x="82" y="47" width="10" height="5" fill="#ffffff" />
    <rect x="7" y="52" width="10" height="5" fill="#ffffff" />
    <rect x="22" y="52" width="5" height="5" fill="#ffffff" />
    <rect x="32" y="52" width="10" height="5" fill="#ffffff" />
    <rect x="47" y="52" width="25" height="5" fill="#ffffff" />
    <rect x="77" y="52" width="5" height="5" fill="#ffffff" />
    <rect x="87" y="52" width="10" height="5" fill="#ffffff" />
    <rect x="7" y="57" width="5" height="5" fill="#ffffff" />
    <rect x="22" y="57" width="10" height="5" fill="#ffffff" />
    <rect x="37" y="57" width="5" height="5" fill="#ffffff" />
    <rect x="52" y="57" width="10" height="5" fill="#ffffff" />
    <rect x="67" y="57" width="10" height="5" fill="#ffffff" />
    <rect x="87" y="57" width="5" height="5" fill="#ffffff" />
    <rect x="7" y="62" width="35" height="5" fill="#ffffff" />
    <rect x="92" y="62" width="5" height="5" fill="#ffffff" />
    <rect x="7" y="67" width="10" height="5" fill="#ffffff" />
    <rect x="22" y="67" width="5" height="5" fill="#ffffff" />
    <rect x="32" y="67" width="10" height="5" fill="#ffffff" />
    <rect x="52" y="67" width="5" height="5" fill="#ffffff" />
    <rect x="62" y="67" width="5" height="5" fill="#ffffff" />
    <rect x="72" y="67" width="10" height="5" fill="#ffffff" />
    <rect x="7" y="72" width="5" height="5" fill="#ffffff" />
    <rect x="17" y="72" width="10" height="5" fill="#ffffff" />
    <rect x="32" y="72" width="15" height="5" fill="#ffffff" />
    <rect x="52" y="72" width="20" height="5" fill="#ffffff" />
    <rect x="77" y="72" width="5" height="5" fill="#ffffff" />
    <rect x="92" y="72" width="5" height="5" fill="#ffffff" />
    <rect x="7" y="77" width="5" height="5" fill="#ffffff" />
    <rect x="32" y="77" width="10" height="5" fill="#ffffff" />
    <rect x="57" y="77" width="15" height="5" fill="#ffffff" />
    <rect x="77" y="77" width="5" height="5" fill="#ffffff" />
    <rect x="87" y="77" width="5" height="5" fill="#ffffff" />
    <rect x="7" y="82" width="5" height="5" fill="#ffffff" />
    <rect x="17" y="82" width="10" height="5" fill="#ffffff" />
    <rect x="32" y="82" width="15" height="5" fill="#ffffff" />
    <rect x="52" y="82" width="5" height="5" fill="#ffffff" />
    <rect x="62" y="82" width="10" height="5" fill="#ffffff" />
    <rect x="92" y="82" width="5" height="5" fill="#ffffff" />
    <rect x="7" y="87" width="5" height="5" fill="#ffffff" />
    <rect x="32" y="87" width="10" height="5" fill="#ffffff" />
    <rect x="62" y="87" width="5" height="5" fill="#ffffff" />
    <rect x="72" y="87" width="5" height="5" fill="#ffffff" />
    <rect x="82" y="87" width="10" height="5" fill="#ffffff" />
    <rect x="7" y="92" width="90" height="5" fill="#ffffff" />
  </g>
</svg>